<svg width="64" height="64" viewBox="0 0 64 64" fill="none" xmlns="http://www.w3.org/2000/svg">
<path d="M26.0857 9C30.6171 9 34.9629 10.8392 38.1671 14.1131C41.3713 17.3869 43.1714 21.8272 43.1714 26.4571C43.1714 30.7811 41.6206 34.756 39.0709 37.8177L39.7806 38.5429H41.8571L55 51.9714L51.0571 56L37.9143 42.5714V40.4497L37.2046 39.7246C34.1038 42.4276 30.1617 43.9131 26.0857 43.9143C21.5543 43.9143 17.2085 42.0751 14.0043 38.8012C10.8001 35.5274 9 31.0871 9 26.4571C9 21.8272 10.8001 17.3869 14.0043 14.1131C17.2085 10.8392 21.5543 9 26.0857 9ZM26.0857 14.3714C19.5143 14.3714 14.2571 19.7429 14.2571 26.4571C14.2571 33.1714 19.5143 38.5429 26.0857 38.5429C32.6571 38.5429 37.9143 33.1714 37.9143 26.4571C37.9143 19.7429 32.6571 14.3714 26.0857 14.3714Z" fill="white"/>
</svg>
